<?xml version="1.0" encoding="utf-8"?>
<!-- Generator: Adobe Illustrator 16.0.0, SVG Export Plug-In . SVG Version: 6.00 Build 0)  -->
<!DOCTYPE svg PUBLIC "-//W3C//DTD SVG 1.1//EN" "http://www.w3.org/Graphics/SVG/1.1/DTD/svg11.dtd">
<svg version="1.1" id="Layer_1" xmlns="http://www.w3.org/2000/svg" xmlns:xlink="http://www.w3.org/1999/xlink" x="0px" y="0px"
	 width="48px" height="48px" viewBox="0 0 48 48" enable-background="new 0 0 48 48" xml:space="preserve">
<path d="M39.605,27.812V14.247c0-2.245-1.646-4.025-2.631-5.089c-0.107-0.117-0.211-0.228-0.303-0.33l-3.301-3.303l-2.83-2.371
	l-1.379,1.379l2.371,2.832l0.594,0.594v6.613c0,1.435,1.167,2.601,2.602,2.601h2.275v10.729l1.945,14.354
	c-0.027,1.411-1.18,2.551-2.596,2.551c-1.435,0-2.6-1.165-2.603-2.598h0.002V24.002L33.751,24c0-2.151-1.749-3.901-3.899-3.901
	H25.95V4.385c0-2.092-1.75-3.793-3.901-3.793H10.346c-2.15,0-3.9,1.701-3.9,3.793v43.023h19.507V22.699h3.901
	c0.717,0,1.3,0.582,1.3,1.301l0.001,0.002v18.203h-0.002c0,2.869,2.333,5.201,5.201,5.201c2.869,0.002,5.201-2.332,5.201-5.201
	L39.605,27.812z M37.006,15.222H34.73c-0.359,0-0.65-0.292-0.65-0.649v-2.51V9.908l0.682,0.683c0.094,0.104,0.195,0.215,0.306,0.333
	c0.817,0.885,1.938,2.098,1.938,3.323V15.222L37.006,15.222z M9.045,4.385c0-0.657,0.584-1.191,1.3-1.191h11.703
	c0.717,0,1.301,0.534,1.301,1.191v9.971c0,0.656-0.584,1.191-1.301,1.191H10.346c-0.715,0-1.299-0.535-1.299-1.191L9.045,4.385
	L9.045,4.385z M9.046,25.662c3.95,0,7.152,3.201,7.152,7.152C12.248,32.814,9.046,29.613,9.046,25.662z M14.281,26.191
	c0.285-1.279,0.921-2.496,1.917-3.492c0.996,0.996,1.63,2.213,1.916,3.492c-0.754,0.6-1.399,1.324-1.914,2.143
	C15.684,27.514,15.037,26.79,14.281,26.191z M17.492,32.691c-0.014-1.045-0.223-2.043-0.586-2.964
	c1.152-2.403,3.602-4.065,6.443-4.065C23.35,29.17,20.824,32.082,17.492,32.691z"/>
</svg>
