<?xml version="1.0" encoding="utf-8"?>
<!-- Generator: Adobe Illustrator 16.0.0, SVG Export Plug-In . SVG Version: 6.00 Build 0)  -->
<!DOCTYPE svg PUBLIC "-//W3C//DTD SVG 1.1//EN" "http://www.w3.org/Graphics/SVG/1.1/DTD/svg11.dtd">
<svg version="1.1" id="Layer_1" xmlns="http://www.w3.org/2000/svg" xmlns:xlink="http://www.w3.org/1999/xlink" x="0px" y="0px"
	 width="100px" height="36.668px" viewBox="0 0 100 36.668" enable-background="new 0 0 100 36.668" xml:space="preserve">
<g id="Layer_1_1_" display="none">
	<g id="St9YL3_1_" display="inline" opacity="0.39">
	</g>
</g>
<g id="Layer_2">
	<path d="M15.524,21.409c-4.213,0-7.629,3.418-7.629,7.631c0,4.214,3.416,7.63,7.629,7.63c4.215,0,7.63-3.416,7.63-7.63
		C23.154,24.827,19.738,21.409,15.524,21.409z M15.524,32.241c-1.778,0-3.219-1.44-3.219-3.22s1.441-3.221,3.219-3.221
		c1.777,0,3.219,1.441,3.219,3.221C18.742,30.8,17.301,32.241,15.524,32.241z"/>
	<path d="M82.529,21.407c-4.215,0-7.631,3.417-7.631,7.629c0,4.214,3.416,7.632,7.631,7.632c4.213,0,7.631-3.418,7.631-7.632
		C90.16,24.824,86.742,21.407,82.529,21.407z M82.529,32.241c-1.777,0-3.221-1.44-3.221-3.22s1.442-3.221,3.221-3.221
		c1.779,0,3.224,1.441,3.224,3.221S84.309,32.241,82.529,32.241z"/>
	<path d="M78.23,10.567c0,0-18.765-8.75-24.754-10.019C47.489-0.719,26.879,0.433,24.922,1.7l-11.515,5.64L2.125,12.867
		l-1.827,10.65c0,0-0.05,6.318,0.388,7.772h5.527l0.071-2.25c0-5.103,4.138-9.239,9.243-9.239c5.103,0,9.238,4.137,9.238,9.239
		l0.158,2.25h48.359l0.007-2.829c0-5.104,3.855-8.871,8.959-8.871s9.523,3.769,9.523,8.871l0.189,2.615c0,0,5.846,0.33,7.688-0.361
		c0,0,0.69-9.787-2.877-13.356C93.604,14.36,87.213,12.492,78.23,10.567z M25.956,11.948c0,0,2.363-5.011,4.943-6.924
		c1.911-1.628,12.446-1.583,12.446-1.583l0.389,9.715L25.956,11.948z M71.613,14.25l-24.698-0.978l-0.577-9.847
		c9.154-0.344,19.576,4.549,25.562,8.061C77.891,14.998,71.613,14.25,71.613,14.25z"/>
</g>
</svg>
