<?xml version="1.0" encoding="utf-8"?>
<!-- Generator: Adobe Illustrator 16.0.0, SVG Export Plug-In . SVG Version: 6.00 Build 0)  -->
<!DOCTYPE svg PUBLIC "-//W3C//DTD SVG 1.1//EN" "http://www.w3.org/Graphics/SVG/1.1/DTD/svg11.dtd">
<svg version="1.1" id="Layer_1" xmlns="http://www.w3.org/2000/svg" xmlns:xlink="http://www.w3.org/1999/xlink" x="0px" y="0px"
	 width="48px" height="48px" viewBox="23.667 -6.291 48 48" enable-background="new 23.667 -6.291 48 48" xml:space="preserve">
<g>
	<circle fill="none" cx="64.323" cy="23.305" r="1.554"/>
	<circle fill="none" cx="34.449" cy="23.305" r="1.554"/>
	<polygon fill="none" points="48.983,13.789 51.282,13.789 51.282,11.157 49.003,11.177 	"/>
	<polygon fill="none" points="52.432,11.177 52.432,11.587 52.432,13.723 59.248,13.723 59.248,12.655 57.606,11.177 	"/>
	<path d="M34.571,19.502c-2.134,0-3.864,1.73-3.864,3.865c0,2.134,1.73,3.863,3.864,3.863c2.135,0,3.865-1.729,3.865-3.863
		C38.437,21.232,36.707,19.502,34.571,19.502z M34.449,24.859c-0.859,0-1.555-0.695-1.555-1.554c0-0.86,0.696-1.555,1.555-1.555
		s1.555,0.694,1.555,1.555C36.003,24.164,35.308,24.859,34.449,24.859z"/>
	<path d="M64.446,19.502c-2.133,0-3.865,1.73-3.865,3.865c0,2.134,1.732,3.863,3.865,3.863c2.134,0,3.865-1.729,3.865-3.863
		C68.312,21.232,66.58,19.502,64.446,19.502z M64.323,24.859c-0.859,0-1.556-0.695-1.556-1.554c0-0.86,0.696-1.555,1.556-1.555
		c0.858,0,1.555,0.694,1.555,1.555C65.878,24.164,65.182,24.859,64.323,24.859z"/>
	<path d="M69.922,18.484v-3.201l-1.725-1.807l-5.911-0.164l-3.202-3.531H47.505v9.278h-0.903v-4.845H25.007v6.57h-0.575v1.477
		l0.55,0.061l-0.03,0.904l5.136-0.031c0,0,0.016,0,0.041,0c0-2.431,1.971-4.403,4.404-4.403c2.432,0,4.403,1.973,4.403,4.403
		c0,0.045-0.005,0.089-0.007,0.133c0.077,0.001,0.12,0.001,0.12,0.001s19.078,0.076,20.739,0.011
		c0.022-0.988,0.356-1.896,0.907-2.636c0.662-1.031,1.905-1.929,3.727-1.89c1.775,0.036,3.133,1.012,3.797,2.011
		c0.543,0.816,0.681,1.659,0.713,2.131c0.014,0.123,0.019,0.248,0.021,0.373h1.71l0.739-0.655v-2.875L69.922,18.484z M51.282,13.789
		h-2.299l0.02-2.612l2.279-0.021V13.789z M59.248,13.723h-6.816v-2.136v-0.41h5.175l1.642,1.478V13.723z"/>
</g>
</svg>
