<?xml version="1.0" encoding="utf-8"?>
<!-- Generator: Adobe Illustrator 16.0.0, SVG Export Plug-In . SVG Version: 6.00 Build 0)  -->
<!DOCTYPE svg PUBLIC "-//W3C//DTD SVG 1.1//EN" "http://www.w3.org/Graphics/SVG/1.1/DTD/svg11.dtd">
<svg version="1.1" id="Layer_1" xmlns="http://www.w3.org/2000/svg" xmlns:xlink="http://www.w3.org/1999/xlink" x="0px" y="0px"
	 width="48px" height="48px" viewBox="26 -5.666 48 48" enable-background="new 26 -5.666 48 48" xml:space="preserve">
<g id="Layer_1_1_" display="none">
	<g id="St9YL3_1_" display="inline" opacity="0.39">
	</g>
</g>
<g id="Layer_2">
	<path d="M33.491,19.807c-2.018,0-3.654,1.637-3.654,3.655c0,2.018,1.636,3.653,3.654,3.653c2.018,0,3.653-1.636,3.653-3.653
		C37.145,21.443,35.509,19.807,33.491,19.807z M33.491,24.994c-0.852,0-1.542-0.689-1.542-1.542s0.69-1.543,1.542-1.543
		c0.851,0,1.542,0.69,1.542,1.543C35.032,24.304,34.342,24.994,33.491,24.994z"/>
	<path d="M65.579,19.806c-2.019,0-3.654,1.636-3.654,3.654c0,2.018,1.636,3.654,3.654,3.654c2.017,0,3.653-1.637,3.653-3.654
		C69.232,21.441,67.596,19.806,65.579,19.806z M65.579,24.994c-0.852,0-1.543-0.689-1.543-1.542s0.69-1.543,1.543-1.543
		c0.852,0,1.543,0.69,1.543,1.543S66.431,24.994,65.579,24.994z"/>
	<path d="M63.52,14.615c0,0-8.986-4.19-11.854-4.798c-2.868-0.606-12.738-0.055-13.674,0.552l-5.515,2.701l-5.403,2.647
		l-0.875,5.101c0,0-0.024,3.024,0.186,3.722h2.646l0.034-1.078c0-2.444,1.982-4.425,4.426-4.425c2.444,0,4.424,1.981,4.424,4.425
		l0.076,1.078H61.15l0.003-1.355c0-2.445,1.847-4.248,4.29-4.248c2.444,0,4.561,1.805,4.561,4.248l0.091,1.252
		c0,0,2.8,0.158,3.682-0.173c0,0,0.33-4.687-1.378-6.396C70.881,16.431,67.821,15.537,63.52,14.615z M38.486,15.276
		c0,0,1.132-2.4,2.368-3.316c0.915-0.78,5.96-0.758,5.96-0.758L47,15.854L38.486,15.276z M60.352,16.378L48.524,15.91l-0.277-4.715
		c4.383-0.165,9.375,2.178,12.241,3.86C63.357,16.736,60.352,16.378,60.352,16.378z"/>
</g>
</svg>
