<?xml version="1.0" encoding="utf-8"?>
<!-- Generator: Adobe Illustrator 16.0.0, SVG Export Plug-In . SVG Version: 6.00 Build 0)  -->
<!DOCTYPE svg PUBLIC "-//W3C//DTD SVG 1.1//EN" "http://www.w3.org/Graphics/SVG/1.1/DTD/svg11.dtd">
<svg version="1.1" id="Layer_1" xmlns="http://www.w3.org/2000/svg" xmlns:xlink="http://www.w3.org/1999/xlink" x="0px" y="0px"
	 width="48px" height="48px" viewBox="18.938 -6.859 48 48" enable-background="new 18.938 -6.859 48 48" xml:space="preserve">
<g>
	<path d="M58.481,18.292c-2.599,0-4.706,2.107-4.706,4.707s2.107,4.705,4.706,4.705c2.6,0,4.707-2.105,4.707-4.705
		S61.081,18.292,58.481,18.292z M59.23,24.98c-0.256,0.11-0.539,0.174-0.834,0.174c-1.162,0-2.104-0.942-2.104-2.104
		c0-0.923,0.598-1.698,1.425-1.982c0.213-0.073,0.439-0.12,0.679-0.12c1.161,0,2.103,0.941,2.103,2.102
		C60.499,23.915,59.976,24.657,59.23,24.98z"/>
	<path d="M31.197,18.292c-2.6,0-4.707,2.107-4.707,4.707s2.107,4.705,4.707,4.705c2.599,0,4.706-2.105,4.706-4.705
		S33.796,18.292,31.197,18.292z M31.111,25.154c-1.162,0-2.103-0.942-2.103-2.104s0.941-2.103,2.103-2.103
		c1.161,0,2.103,0.941,2.103,2.103S32.272,25.154,31.111,25.154z"/>
	<path d="M66.005,19.274h-0.897l-0.138-2.827c0,0-0.275-1.69-2.104-2.103c0,0-9.343-0.173-9.688-0.621l-4.62-4.931H24.663
		c0,0-2.069,1.138-2,4.104l-0.069,0.414l-0.586,0.034l-0.069-1.379l-0.414-0.38h-1.861l-0.414,0.622v6.586l0.586,0.481h1.035v2.241
		c0,0-0.104,1.087,1.086,1.087c1.042,0,3.365,0,3.891,0c0.295-2.757,2.499-4.902,5.333-4.902s5.037,2.146,5.332,4.902H52.92
		c0.178-2.873,2.559-5.149,5.477-5.149c2.897,0,5.267,2.246,5.473,5.092c0.034,0.016,0.068,0.034,0.101,0.057h2.104l0.552-0.535
		v-2.172L66.005,19.274z M39.076,13.758l-1.138,1.103H24.146h-0.484l0-1.035c-0.034-2.275,2.241-3.931,2.241-3.931h12.103
		l1.069,1.172V13.758z M47.386,14.861h-5.621l-1.483-1.103v-2.69l1.069-1.172h6.035V14.861z M51.178,14.31l-0.448,0.552h-2.861
		V9.896l3.31,3.414V14.31z"/>
</g>
</svg>
