<svg xmlns="http://www.w3.org/2000/svg" xmlns:xlink="http://www.w3.org/1999/xlink" version="1.1" id="Layer_1" x="0px" y="0px" width="95.334px" height="35.418px" viewBox="0 0 95.334 35.418" enable-background="new 0 0 95.334 35.418" xml:space="preserve">
<g>
	<circle fill="none" cx="80.969" cy="27.45" r="3.156"/>
	<circle fill="none" cx="20.332" cy="27.45" r="3.156"/>
	<polygon fill="none" points="49.834,8.135 54.5,8.135 54.5,2.792 49.873,2.833  "/>
	<polygon fill="none" points="56.834,2.833 56.834,3.667 56.834,8 70.667,8 70.667,5.833 67.334,2.833  "/>
	<path fill="#000000" d="M20.582,19.731c-4.332,0-7.844,3.512-7.844,7.844s3.512,7.844,7.844,7.844s7.844-3.512,7.844-7.844   S24.914,19.731,20.582,19.731z M20.332,30.606c-1.743,0-3.156-1.414-3.156-3.156c0-1.744,1.413-3.156,3.156-3.156   s3.156,1.412,3.156,3.156C23.488,29.192,22.075,30.606,20.332,30.606z"/>
	<path fill="#000000" d="M81.219,19.731c-4.332,0-7.844,3.512-7.844,7.844s3.512,7.844,7.844,7.844s7.844-3.512,7.844-7.844   S85.551,19.731,81.219,19.731z M80.969,30.606c-1.743,0-3.156-1.414-3.156-3.156c0-1.744,1.413-3.156,3.156-3.156   s3.156,1.412,3.156,3.156C84.125,29.192,82.712,30.606,80.969,30.606z"/>
	<path fill="#000000" d="M92.334,17.667v-6.5l-3.5-3.667l-12-0.333L70.334,0h-23.5v18.833H45V9H1.167v13.333H0v3l1.116,0.122   l-0.061,1.836l10.425-0.063c0,0,0.033,0.001,0.083,0.001c0-4.936,4.001-8.938,8.938-8.938s8.938,4.002,8.938,8.938   c0,0.09-0.011,0.178-0.014,0.268c0.154,0.002,0.243,0.004,0.243,0.004s38.723,0.152,42.094,0.019   c0.045-2.005,0.724-3.849,1.843-5.349c1.342-2.094,3.866-3.914,7.563-3.837c3.602,0.075,6.358,2.055,7.708,4.083   c1.102,1.657,1.381,3.367,1.445,4.322c0.027,0.25,0.037,0.505,0.043,0.762h3.471l1.5-1.334v-5.833L92.334,17.667z M54.5,8.135   h-4.666l0.039-5.302L54.5,2.792V8.135z M70.667,8H56.834V3.667V2.833h10.5l3.333,3V8z"/>
</g>
</svg>