<?xml version="1.0" encoding="utf-8"?>
<!-- Generator: Adobe Illustrator 16.0.0, SVG Export Plug-In . SVG Version: 6.00 Build 0)  -->
<!DOCTYPE svg PUBLIC "-//W3C//DTD SVG 1.1//EN" "http://www.w3.org/Graphics/SVG/1.1/DTD/svg11.dtd">
<svg version="1.1" id="Layer_1" xmlns="http://www.w3.org/2000/svg" xmlns:xlink="http://www.w3.org/1999/xlink" x="0px" y="0px"
	 width="28px" height="28px" viewBox="0 0 28 28" enable-background="new 0 0 28 28" xml:space="preserve">
<g id="icomoon-ignore">
</g>
<path d="M23.489,8.532C23.611,8.653,23.732,8.81,23.854,9h-6.146V2.854c0.191,0.122,0.347,0.244,0.469,0.365L23.489,8.532z
	 M17.292,10.667h7.083v13.75c0,0.347-0.122,0.642-0.364,0.885c-0.244,0.243-0.539,0.365-0.886,0.365h-17.5
	c-0.347,0-0.642-0.122-0.885-0.365c-0.243-0.244-0.365-0.538-0.365-0.885V3.583c0-0.347,0.122-0.642,0.365-0.885
	c0.243-0.243,0.538-0.364,0.885-0.365h10.416v7.083c0,0.347,0.122,0.642,0.365,0.885C16.65,10.544,16.945,10.666,17.292,10.667z
	 M19.375,20.25v-0.833c0-0.122-0.039-0.222-0.117-0.3C19.18,19.04,19.08,19,18.958,19H9.792c-0.122,0-0.221,0.039-0.299,0.117
	s-0.117,0.178-0.118,0.3v0.833c0,0.122,0.039,0.222,0.118,0.3c0.078,0.077,0.178,0.117,0.299,0.117h9.167
	c0.122,0,0.222-0.039,0.3-0.117C19.335,20.472,19.375,20.371,19.375,20.25z M19.375,16.917v-0.834c0-0.122-0.039-0.221-0.117-0.299
	c-0.078-0.077-0.178-0.117-0.3-0.117H9.792c-0.122,0-0.221,0.039-0.299,0.117s-0.117,0.178-0.118,0.299v0.834
	c0,0.122,0.039,0.221,0.118,0.299c0.078,0.077,0.178,0.117,0.299,0.117h9.167c0.122,0,0.222-0.039,0.3-0.117
	C19.335,17.138,19.375,17.038,19.375,16.917z M19.375,13.583V12.75c0-0.122-0.039-0.221-0.117-0.299
	c-0.078-0.078-0.178-0.117-0.3-0.118H9.792c-0.122,0-0.221,0.039-0.299,0.118c-0.078,0.078-0.117,0.178-0.118,0.299v0.833
	c0,0.122,0.039,0.221,0.118,0.299C9.571,13.96,9.67,14,9.792,14h9.167c0.122,0,0.222-0.039,0.3-0.118
	C19.335,13.804,19.375,13.705,19.375,13.583z"/>
</svg>
