<?xml version="1.0" encoding="utf-8"?>
<!-- Generator: Adobe Illustrator 16.0.0, SVG Export Plug-In . SVG Version: 6.00 Build 0)  -->
<!DOCTYPE svg PUBLIC "-//W3C//DTD SVG 1.1//EN" "http://www.w3.org/Graphics/SVG/1.1/DTD/svg11.dtd">
<svg version="1.1" id="Layer_1" xmlns="http://www.w3.org/2000/svg" xmlns:xlink="http://www.w3.org/1999/xlink" x="0px" y="0px"
	 width="22px" height="22px" viewBox="0 0 22 22" enable-background="new 0 0 22 22" xml:space="preserve">
<g id="icomoon-ignore">
</g>
<path d="M10.834,20.666c-5.247,0-9.5-4.253-9.5-9.5c0-5.247,4.253-9.5,9.5-9.5c5.247,0,9.5,4.253,9.5,9.5
	C20.334,16.413,16.081,20.666,10.834,20.666z M10.834,3.394c-4.293,0-7.773,3.479-7.773,7.772c0,4.293,3.479,7.772,7.773,7.772
	c4.293,0,7.772-3.479,7.772-7.772C18.606,6.873,15.127,3.394,10.834,3.394z M9.97,16.348c-0.864,0-0.864-0.863-0.864-0.863
	l0.864-4.318c0,0,0-0.864-0.864-0.864c0,0-0.863,0-0.863-0.863h2.591c0,0,0.863,0,0.863,0.863c0,0.864-0.863,3.455-0.863,4.318
	c0,0.864,0.863,0.864,0.863,0.864h0.863C12.561,15.484,12.561,16.348,9.97,16.348z M11.697,7.711c-0.478,0-0.863-0.386-0.863-0.864
	c0-0.477,0.386-0.863,0.863-0.863s0.863,0.386,0.863,0.863C12.561,7.325,12.175,7.711,11.697,7.711z"/>
</svg>
