<?xml version="1.0" encoding="utf-8"?>
<!-- Generator: Adobe Illustrator 16.0.0, SVG Export Plug-In . SVG Version: 6.00 Build 0)  -->
<!DOCTYPE svg PUBLIC "-//W3C//DTD SVG 1.1//EN" "http://www.w3.org/Graphics/SVG/1.1/DTD/svg11.dtd">
<svg version="1.1" id="Layer_1" xmlns="http://www.w3.org/2000/svg" xmlns:xlink="http://www.w3.org/1999/xlink" x="0px" y="0px"
	 width="48px" height="48px" viewBox="15.8 26 48 48" enable-background="new 15.8 26 48 48" xml:space="preserve">
<g id="Calque_1">
	<g>
		<path d="M57.814,61.596c0.263,0,0.477-0.212,0.477-0.476c0-0.263-0.214-0.478-0.477-0.478h-1.836v-0.999
			c-1.466,0-3.089,0.558-3.444,2.083H36.439c-3.798,0-5.494,0.636-5.494,4.385l0.001,0.307c0.005,1.239,0.011,2.643-0.696,3.354
			c-0.352,0.353-0.868,0.523-1.584,0.523c-0.734,0-1.265-0.176-1.626-0.537c-0.668-0.672-0.659-1.95-0.655-2.796l0.002-10.188
			c33.168,4.386,32.695-28.219,32.695-28.219c-5.147,6.319-11.118,0-23.934,7.337c-12.817,7.338-9.926,20.739-9.926,20.739
			c0.004,0,0.009,0,0.011,0v10.324c-0.005,1.035-0.016,2.602,0.991,3.614c0.579,0.581,1.399,0.876,2.44,0.876
			c1.024,0,1.833-0.29,2.4-0.862c1.044-1.047,1.039-2.777,1.032-4.17l-0.002-0.302c0-2.581,0.512-3.232,4.343-3.232h16.078
			c0.288,1.657,1.954,2.215,3.459,2.215V64.02h1.839c0.263,0,0.476-0.211,0.476-0.474c0-0.265-0.213-0.478-0.476-0.478h-1.839
			v-1.473H57.814z M36.197,45.875c6.406-2.453,6.494-2.108,10.602-4.998c0,0-2.268,6.918-18.456,12.874
			C28.342,53.751,30.463,48.067,36.197,45.875z"/>
	</g>
</g>
</svg>
