<?xml version="1.0" encoding="utf-8"?>
<!-- Generator: Adobe Illustrator 16.0.0, SVG Export Plug-In . SVG Version: 6.00 Build 0)  -->
<!DOCTYPE svg PUBLIC "-//W3C//DTD SVG 1.1//EN" "http://www.w3.org/Graphics/SVG/1.1/DTD/svg11.dtd">
<svg version="1.1" id="Layer_1" xmlns="http://www.w3.org/2000/svg" xmlns:xlink="http://www.w3.org/1999/xlink" x="0px" y="0px"
	 width="739px" height="95.238px" viewBox="0 0 739 95.238" enable-background="new 0 0 739 95.238" xml:space="preserve">
<g>
	
		<linearGradient id="SVGID_1_" gradientUnits="userSpaceOnUse" x1="-66.0312" y1="132.9604" x2="-4.1239" y2="71.0532" gradientTransform="matrix(1 0 0 -1 104 140.1514)">
		<stop  offset="0" style="stop-color:#F9A13E"/>
		<stop  offset="1" style="stop-color:#F89850"/>
	</linearGradient>
	<path fill="url(#SVGID_1_)" d="M97.686,67.139c0.044-0.426,0.076-0.856,0.1-1.289c0.03-0.512-30.799-29.762-30.799-29.762H66.25
		C66.25,36.088,97.497,69.049,97.686,67.139z"/>
	
		<linearGradient id="SVGID_2_" gradientUnits="userSpaceOnUse" x1="-112.1934" y1="122.5991" x2="-57.3862" y2="67.7918" gradientTransform="matrix(1 0 0 -1 104 140.1514)">
		<stop  offset="0" style="stop-color:#F9A13E"/>
		<stop  offset="1" style="stop-color:#F89850"/>
	</linearGradient>
	<path fill="url(#SVGID_2_)" d="M31.911,56.993c-0.041,0.089-0.081,0.179-0.123,0.269c-0.044,0.094-0.089,0.187-0.134,0.281
		c-0.982,2.049,13.758,16.459,14.943,14.708c0.054-0.078,0.108-0.159,0.163-0.237c0.06-0.092,0.119-0.179,0.178-0.271
		C47.887,70.303,32.332,56.057,31.911,56.993z"/>
	
		<linearGradient id="SVGID_3_" gradientUnits="userSpaceOnUse" x1="-91.8306" y1="102.8862" x2="-36.3165" y2="47.3722" gradientTransform="matrix(1 0 0 -1 104 140.1514)">
		<stop  offset="0" style="stop-color:#F9A13E"/>
		<stop  offset="1" style="stop-color:#F89850"/>
	</linearGradient>
	<path fill="url(#SVGID_3_)" d="M52.742,77.256c-0.042,0.092-0.339,0.593-0.609,0.858c-0.047,0.091,14.389,14.408,14.389,14.408
		h1.299C67.822,92.522,54.271,77.862,52.742,77.256z"/>
	
		<linearGradient id="SVGID_4_" gradientUnits="userSpaceOnUse" x1="-102.3145" y1="141.8374" x2="-15.4093" y2="54.9323" gradientTransform="matrix(1 0 0 -1 104 140.1514)">
		<stop  offset="0" style="stop-color:#F16D59"/>
		<stop  offset="1" style="stop-color:#F9A13E"/>
	</linearGradient>
	<path fill="url(#SVGID_4_)" d="M97.805,65.59C97.13,80.556,84.749,92.522,69.623,92.522h-2.045L52.471,77.641
		c1.243-1.752,2.397-3.568,3.427-5.461h13.725c4.34,0,7.873-3.531,7.873-7.873c0-4.341-3.533-7.873-7.873-7.873H61.5
		c0.619-3.271,0.958-6.646,0.958-10.096c0-3.504-0.345-6.925-0.986-10.249h5.045l31.2,30.743
		C97.753,66.418,97.783,66.006,97.805,65.59z M8.207,0H0v20.344h8.207c14.334,0,25.997,11.659,25.997,25.993
		c0,3.899-0.87,7.601-2.415,10.924L46.76,72.014c4.916-7.355,7.789-16.186,7.789-25.677C54.549,20.787,33.76,0,8.207,0z"/>
	
		<linearGradient id="SVGID_5_" gradientUnits="userSpaceOnUse" x1="-57.874" y1="149.8872" x2="6.2048" y2="85.8085" gradientTransform="matrix(1 0 0 -1 104 140.1514)">
		<stop  offset="0" style="stop-color:#B94E52"/>
		<stop  offset="1" style="stop-color:#F68E4A"/>
	</linearGradient>
	<path fill="url(#SVGID_5_)" d="M69.623,0H36.39c8.117,4.956,14.838,11.983,19.418,20.344h13.815c4.34,0,7.873,3.53,7.873,7.873
		s-3.533,7.873-7.873,7.873h-3.104l31.199,30.742c0.074-0.834,0.12-1.672,0.12-2.524c0-6.858-2.461-13.15-6.547-18.046
		c4.086-4.894,6.547-11.187,6.547-18.044C97.837,12.659,85.181,0,69.623,0z"/>
	
		<linearGradient id="SVGID_6_" gradientUnits="userSpaceOnUse" x1="-97.2388" y1="74.5806" x2="-53.3553" y2="30.6971" gradientTransform="matrix(1 0 0 -1 104 140.1514)">
		<stop  offset="0" style="stop-color:#F9A13E"/>
		<stop  offset="1" style="stop-color:#F89850"/>
	</linearGradient>
	<path fill="url(#SVGID_6_)" d="M67.578,92.522h-30.95c6.23-3.847,11.616-8.926,15.843-14.882L67.578,92.522z M46.76,72.014
		L31.789,57.261C27.653,66.15,18.64,72.333,8.207,72.333H0v20.341h8.207C24.268,92.674,38.443,84.458,46.76,72.014z"/>
</g>
<g>
	<path fill="#010101" fill-opacity="0.1" d="M619.378,55.96c0-16.002-12.974-28.975-28.976-28.975
		c-16.004,0-28.977,12.973-28.977,28.975h8.279c0-11.43,9.266-20.697,20.697-20.697c11.431,0,20.696,9.268,20.696,20.697"/>
	
		<radialGradient id="SVGID_7_" cx="1.3516" cy="347.7173" r="0.1856" gradientTransform="matrix(200.4454 0 0 -200.4454 319.375 69727.2188)" gradientUnits="userSpaceOnUse">
		<stop  offset="0.1" style="stop-color:#81B3DF"/>
		<stop  offset="0.9" style="stop-color:#0E5C95"/>
	</radialGradient>
	
		<radialGradient id="SVGID_8_" cx="1.3516" cy="348.0825" r="0.9187" gradientTransform="matrix(200.4454 0 0 -200.4454 319.375 69727.2188)" gradientUnits="userSpaceOnUse">
		<stop  offset="0" style="stop-color:#F6F1EF"/>
		<stop  offset="1" style="stop-color:#DEDEDD"/>
	</radialGradient>
	<circle fill="url(#SVGID_7_)" stroke="url(#SVGID_8_)" stroke-width="9" cx="590.195" cy="47.517" r="18.627"/>
	
		<radialGradient id="SVGID_9_" cx="1.4141" cy="347.394" r="0.0928" gradientTransform="matrix(429.8441 0 0 -283.2444 -16 98398.6094)" gradientUnits="userSpaceOnUse">
		<stop  offset="0" style="stop-color:#EF6B5A"/>
		<stop  offset="1" style="stop-color:#DF2628"/>
	</radialGradient>
	<path fill="url(#SVGID_9_)" d="M631.795,26.986c-11.396-22.93-39.221-32.278-62.149-20.883c-7.149,3.554-13.26,8.893-17.739,15.5
		l18.627,32.287c-3.431-10.902,2.628-22.523,13.531-25.953c1.918-0.604,3.914-0.924,5.924-0.951"/>
	
		<radialGradient id="SVGID_10_" cx="1.6362" cy="347.7515" r="0.1428" gradientTransform="matrix(334.034 0 0 -387.5278 37.75 134806.8906)" gradientUnits="userSpaceOnUse">
		<stop  offset="0.65" style="stop-color:#4DB749"/>
		<stop  offset="1" style="stop-color:#398C42"/>
	</radialGradient>
	<path fill="url(#SVGID_10_)" d="M551.906,21.603c-14.258,21.269-8.574,50.066,12.693,64.324c6.58,4.412,14.18,7.062,22.077,7.701
		l19.454-33.114c-7.273,8.817-20.318,10.067-29.135,2.794c-2.996-2.472-5.234-5.734-6.463-9.418"/>
	
		<radialGradient id="SVGID_11_" cx="1.0137" cy="347.8062" r="0.1481" gradientTransform="matrix(268.2478 0 0 -359.2962 332.75 125008.9531)" gradientUnits="userSpaceOnUse">
		<stop  offset="0.6" style="stop-color:#FCD20D"/>
		<stop  offset="0.7" style="stop-color:#F6C61B"/>
		<stop  offset="1" style="stop-color:#BC832B"/>
	</radialGradient>
	<path fill="url(#SVGID_11_)" d="M586.677,93.628c25.53,1.93,47.794-17.201,49.724-42.734c0.623-8.236-0.967-16.492-4.605-23.908
		h-41.807c11.43,0.052,20.654,9.361,20.602,20.791c-0.021,4.625-1.592,9.108-4.459,12.737"/>
	<path opacity="0.075" fill="#010101" enable-background="new    " d="M551.906,21.603l18.627,32.287
		c-1.38-4.643-1.087-9.623,0.828-14.073l-18.628-19.455"/>
	<path opacity="0.05" fill="#010101" enable-background="new    " d="M586.677,93.628l19.454-33.114
		c-3.069,3.661-7.31,6.146-12.004,7.036l-8.279,26.078"/>
	<path opacity="0.05" fill="#010101" enable-background="new    " d="M631.795,26.986h-41.807
		c6.297,0.028,12.239,2.924,16.143,7.863l26.492-6.623"/>
</g>
<g>
	<path fill="#030303" d="M432.088,95.238c-21.913,0-39.74-17.982-39.74-40.084c0-22.102,17.827-40.083,39.74-40.083
		c21.913,0,39.74,17.98,39.74,40.083C471.828,77.256,454,95.238,432.088,95.238z M432.088,17.075
		c-20.808,0-37.737,17.082-37.737,38.079c0,20.998,16.929,38.081,37.737,38.081s37.736-17.083,37.736-38.081
		C469.824,34.157,452.896,17.075,432.088,17.075z"/>
	<g>
		<g>
			<defs>
				<path id="SVGID_12_" d="M453.773,22.767v-0.103l2.261-11.303c0,0-5.023-11.554-21.852-10.172
					c-16.828,1.381-18.963,5.274-21.726,9.921l1.633,7.409l-3.14,2.01c0,0-1.13-3.392-2.888-3.517c0,0,2.637-3.768,0.753-6.405
					s-11.931-2.386-15.824,10.926c0,0-0.502-4.019-2.135-4.019c-1.632,0-7.66,2.135-6.028,8.415
					c1.633,6.279,7.284,8.163,9.168,8.916c0,0,0.878,1.13,0.502,2.637c-0.198,0.792-4.755,14.878-0.949,27.899
					c2.843,9.725,11.929,18.173,11.929,18.173c6.94,6.62,16.304,10.681,26.61,10.681c21.393,0,38.738-17.497,38.738-39.083
					C470.826,41.677,464.062,29.792,453.773,22.767z"/>
			</defs>
			<clipPath id="SVGID_13_">
				<use xlink:href="#SVGID_12_"  overflow="visible"/>
			</clipPath>
			<g clip-path="url(#SVGID_13_)">
				<path fill="#070707" d="M445.75,69.399c0,0,28.155,4.533,31.257,43.903c0,0-5.25,3.342-10.737,3.58
					C466.269,116.882,466.747,86.579,445.75,69.399z"/>
				<path fill="#DD1F2D" d="M462.213,94.024c0.221,0.637,0.428,1.27,0.625,1.897c1.85-0.188,5.996-0.773,9.669-2.437
					c-0.257-0.616-0.521-1.213-0.792-1.798C470.365,92.309,467.37,93.414,462.213,94.024L462.213,94.024z"/>
				<g>
					<g>
						<circle fill="#F4CF8C" cx="416.706" cy="39.583" r="6.039"/>
						<circle fill="#F4CF8C" cx="416.706" cy="39.583" r="6.039"/>
						<path fill="#F4CF8C" d="M410.667,39.583c0,0.185,0.01,0.368,0.026,0.55c0.431-0.183,0.89-0.421,1.378-0.734
							c2.861-1.828,2.946-4.008,2.307-5.389C412.198,34.92,410.667,37.072,410.667,39.583L410.667,39.583z"/>
						<circle fill="#F4CF8C" cx="413.586" cy="39.583" r="2.919"/>
						<g>
							<path fill="#D8AF6F" d="M413.586,36.664c-0.119,0-0.235,0.008-0.35,0.022c1.138,0.174,2.02,1.402,2.02,2.897
								c0,1.494-0.882,2.723-2.02,2.896c0.115,0.014,0.23,0.023,0.35,0.023c1.611,0,2.919-1.307,2.919-2.918
								S415.198,36.664,413.586,36.664z"/>
							<path fill="#F4CF8C" d="M413.236,36.686c-0.09-0.014-0.182-0.022-0.275-0.022c-1.268,0-2.295,1.307-2.295,2.919
								C410.667,38.088,411.79,36.859,413.236,36.686z"/>
							<path fill="#F4CF8C" d="M410.667,39.583c0,1.611,1.027,2.918,2.295,2.918c0.093,0,0.185-0.009,0.275-0.023
								C411.79,42.306,410.667,41.076,410.667,39.583z"/>
						</g>
					</g>
					<g>
						<circle fill="#F4CF8C" cx="452.046" cy="39.583" r="6.039"/>
						<circle fill="#F4CF8C" cx="452.046" cy="39.583" r="6.039"/>
						<circle fill="#F4CF8C" cx="455.167" cy="39.583" r="2.919"/>
						<g>
							<path fill="#D8AF6F" d="M453.496,39.583c0-1.495,0.881-2.724,2.02-2.897c-0.114-0.014-0.231-0.022-0.349-0.022
								c-1.613,0-2.919,1.307-2.919,2.919c0,1.611,1.306,2.918,2.919,2.918c0.118,0,0.235-0.009,0.349-0.023
								C454.377,42.306,453.496,41.076,453.496,39.583L453.496,39.583z"/>
							<path fill="#F4CF8C" d="M458.086,39.583c0-1.612-1.027-2.919-2.295-2.919c-0.094,0-0.185,0.008-0.275,0.022
								C456.963,36.859,458.086,38.088,458.086,39.583z"/>
							<path fill="#F4CF8C" d="M455.516,42.479c0.091,0.014,0.182,0.023,0.276,0.023c1.267,0,2.295-1.307,2.295-2.918
								C458.086,41.076,456.963,42.306,455.516,42.479z"/>
						</g>
					</g>
				</g>
				<g>
					<path fill="#F4CF8C" d="M399.835,43.44c0,0,5.76,0.752,5.008-5.008c0,0,2.003,3.13,6.511,0.25
						c4.507-2.879,2.128-6.636,0.877-6.76c-1.252-0.125-3.005-1.503-7.388,3.005l-2.504-5.76l2.88-3.756
						c0,0,0.395,5.426,4.581,3.902c4.184-1.522,1.054-10.789-2.703-10.789c-3.756,0-6.761,3.881-6.761,3.881
						s1.252-3.505,6.761-6.385c0,0,2.129-1.252,0.877-4.382c-1.252-3.131-13.147-0.877-15.025,14.398c0,0-2.128-2.003-1.627-5.133
						c0.5-3.13-6.136-2.253-4.884,4.507c1.252,6.762,7.763,8.138,7.763,8.138s2.211,3.577,0.626,7.638
						C394.828,41.187,397.332,44.317,399.835,43.44z"/>
					<g>
						<path fill="#F4CF8C" d="M411.355,38.683c4.507-2.879,2.128-6.636,0.877-6.76c-0.77-0.077-1.73-0.625-3.374,0.009l1.477,3.039
							c0,0-0.304,4.347-5.156,3.234c0,0-0.051,0.171-0.178,0.431C405.551,39.281,407.57,41.102,411.355,38.683z"/>
						<path fill="#F4CF8C" d="M404.886,38.856c-0.75,1.346-3.351,3.931-9.604,0.708c-0.119,0.564-0.232,1.064-0.456,1.622
							c0,0,2.504,3.131,5.008,2.254C399.835,43.44,405.303,44.151,404.886,38.856L404.886,38.856z"/>
					</g>
					<path fill="#F4CF8C" d="M405.219,25.411c0,0,0.396,5.426,4.581,3.902c1.71-0.623,2.198-2.54,1.92-4.589
						c-1.044,1.081-4.269,3.823-5.531-1.984l-5.762,6.671l-4.549,2.628l5.661-1.415l3.305,4.303l-2.504-5.76L405.219,25.411z"/>
					<path fill="#F4CF8C" d="M401.279,20.778c0.933-1.283,2.688-3.121,5.819-4.757c0,0,2.128-1.252,0.876-4.382
						c-0.021-0.054-0.046-0.106-0.075-0.156c-0.297,0.947-0.877,2.076-2.013,2.866c-2.325,1.618-10.614,7.379-7.986,16.072
						C397.9,30.421,396.837,25.042,401.279,20.778z"/>
					<path fill="#F4CF8C" d="M392.831,25.915c-0.439-0.477-1.938-2.33-1.509-5.011c0.198-1.236-0.719-1.845-1.823-1.715
						c-0.196,3.367,0.268,10.188,6.885,12.143C396.384,31.331,393.877,30.14,392.831,25.915z"/>
				</g>
				<path fill="#070707" d="M394.828,41.187l5.008,2.254c0,0-4.507,24.792,19.032,25.793c0,0,0.166,15.945-14.358,15.696
					C404.509,84.929,385.313,69.681,394.828,41.187z"/>
				<path fill="#DD1F2D" d="M400.827,56.927c-0.077-0.228-0.148-0.455-0.217-0.683l-0.004-0.013
					c-1.112,0.577-4.105,1.871-8.397,1.829c0.02,0.554,0.052,1.096,0.093,1.633c2.155,0.006,5.711-0.285,8.813-1.958l-0.006-0.017
					c-0.09-0.234-0.173-0.469-0.253-0.705L400.827,56.927z"/>
				<path fill="#DD1F2D" d="M402.415,60.479c-0.119-0.206-0.232-0.413-0.342-0.623l-0.001-0.002
					c-1.282,0.607-4.854,2.061-9.539,2.064c0.082,0.616,0.178,1.22,0.285,1.812c2.549,0.002,6.317-0.45,10.001-2.583l-0.01-0.017
					c-0.129-0.203-0.252-0.408-0.372-0.614L402.415,60.479L402.415,60.479z"/>
				<path fill="#DD1F2D" d="M394.828,41.187c-1.36,3.726-1.933,7.144-2.383,10.35c2.381,0.459,4.784,0.502,7.136-1.017
					c-0.3-4.015,0.255-7.079,0.255-7.079L394.828,41.187z"/>
				<path fill="#070707" d="M448.499,68.604h-28.245c-30.064,13.203-23.065,62.992-23.065,62.992h37.381v-22.768l2.068,22.768
					h34.925C471.563,131.595,478.562,81.807,448.499,68.604z"/>
				<path fill="#931926" d="M473.831,114.945c-0.422-10.697-2.57-24.463-9.776-34.766c-8.632-9.218-18.305-10.78-18.305-10.78
					c20.998,17.18,20.52,47.483,20.52,47.483C469.076,116.759,471.819,115.826,473.831,114.945z"/>
				<path fill="#DD1F2D" d="M398.405,99.626c-0.098,0.457-0.191,0.916-0.279,1.373c8.308-3.06,21.454-5.036,36.25-5.036
					c14.797,0,27.942,1.976,36.25,5.036c-0.088-0.457-0.181-0.916-0.279-1.373c-8.322-3.002-21.339-4.936-35.971-4.936
					S406.727,96.624,398.405,99.626z"/>
				<path fill="#DD1F2D" d="M400.051,93.339c-0.13,0.411-0.255,0.824-0.376,1.237c8.345-2.75,20.793-4.498,34.702-4.498
					s26.357,1.747,34.702,4.498c-0.121-0.413-0.247-0.826-0.377-1.237c-8.34-2.681-20.625-4.375-34.325-4.375
					C420.676,88.964,408.391,90.658,400.051,93.339L400.051,93.339z"/>
				<path fill="#DD1F2D" d="M411.737,74.069c-6.438,8.299-5.744,18.395-5.744,18.395l1.75-0.795
					c-0.55-8.807,3.469-15.783,5.998-19.247C413.046,72.949,412.379,73.498,411.737,74.069z"/>
				<path fill="#DD1F2D" d="M455.012,72.422c2.528,3.463,6.548,10.44,5.998,19.247l1.75,0.795c0,0,0.694-10.095-5.744-18.394
					C456.374,73.498,455.707,72.949,455.012,72.422L455.012,72.422z"/>
				<path fill="#F4CF8C" d="M449.997,67.567c0,0-6.003,5.47-15.876,5.47c-11.74,0-15.366-5.47-15.366-5.47l-2.079-38.254h35.399
					L449.997,67.567L449.997,67.567z"/>
				<path fill="#F4CF8C" d="M449.997,67.567c0,0-6.003,5.47-15.876,5.47c-11.74,0-15.366-5.47-15.366-5.47l-2.079-38.254h35.399
					L449.997,67.567L449.997,67.567z"/>
				<path fill="#F4CF8C" d="M449.997,67.567c0,0-6.003,5.47-15.876,5.47c-11.74,0-15.366-5.47-15.366-5.47l-2.079-38.254h35.399
					L449.997,67.567L449.997,67.567z"/>
				<path fill="#B27D30" d="M438.871,35.834l0.874-1.112c0,0,3.182-0.16,8.074,2.465c0,0-3.54-4.375-8.869-2.903l0.16-0.955
					l-1.511,2.465c0,0,0.556,3.301-0.04,5.687h-6.363c-0.597-2.386-0.04-5.687-0.04-5.687l-1.511-2.465l0.159,0.955
					c-5.328-1.472-8.868,2.903-8.868,2.903c4.891-2.625,8.073-2.465,8.073-2.465l0.875,1.112c-1.71,3.42-5.727,3.699-5.727,3.699
					c4.216,0.438,5.767-2.187,5.767-2.187c-0.239,2.068,0.199,4.791,0.199,4.791l4.235,2.984l0.021-0.021l0.021,0.021l4.234-2.984
					c0,0,0.438-2.722,0.199-4.791c0,0,1.551,2.625,5.767,2.187C444.597,39.533,440.58,39.255,438.871,35.834L438.871,35.834z"/>
				<ellipse fill="#070707" cx="434.376" cy="48.223" rx="5.806" ry="3.48"/>
				<path fill="#DD1F2D" d="M434.376,51.877c1.314,0,2.525-0.436,3.499-0.877c-0.682-0.737-1.994-1.237-3.499-1.237
					c-1.506,0-2.817,0.5-3.499,1.237C431.851,51.441,433.062,51.877,434.376,51.877z"/>
				<path fill="#FFFFFF" d="M434.376,44.744c-3.207,0-5.806,1.558-5.806,3.479c0,0.1,0.009,0.199,0.023,0.298h11.566
					c0.014-0.099,0.023-0.198,0.023-0.298C440.182,46.301,437.583,44.744,434.376,44.744L434.376,44.744z"/>
				<path fill="#C98C2B" d="M434.376,53.969c-1.178,0-2.274-0.21-3.189-0.572c0.733,0.951,1.888,1.567,3.189,1.567
					c1.301,0,2.456-0.616,3.189-1.567C436.65,53.759,435.554,53.969,434.376,53.969L434.376,53.969z"/>
				<path fill="#C98C2B" d="M434.376,64.32c-2.013,0-3.885-0.361-5.449-0.979c1.254,1.625,3.225,2.676,5.449,2.676
					c2.224,0,4.194-1.051,5.448-2.676C438.26,63.959,436.389,64.32,434.376,64.32L434.376,64.32z"/>
				<polygon fill="#CEA063" points="451.734,35.596 452.076,29.313 416.677,29.313 417.019,35.596 				"/>
				<path fill="#070707" d="M452.153,29.313l3.106-17.953c0,0-4.684-9.192-20.78-9.192c-19.566,0-20.985,9.192-20.985,9.192
					l3.105,17.953H452.153z"/>
				<polygon fill="#DD1F2D" points="416.6,29.313 452.154,29.313 453.485,21.614 415.268,21.614 				"/>
				<polygon fill="#070707" points="411.231,33.608 409.8,29.313 458.952,29.313 457.521,33.608 				"/>
				<g>
					<circle fill="#070707" cx="434.376" cy="24.075" r="5.724"/>
					<path fill="#DD1F2D" d="M434.376,29.099c-2.771,0-5.024-2.253-5.024-5.022c0-2.771,2.254-5.025,5.024-5.025
						c2.77,0,5.024,2.254,5.024,5.025C439.4,26.845,437.146,29.099,434.376,29.099L434.376,29.099z M434.376,19.708
						c-2.409,0-4.368,1.959-4.368,4.369c0,2.407,1.959,4.365,4.368,4.365s4.368-1.958,4.368-4.365
						C438.744,21.667,436.785,19.708,434.376,19.708z"/>
					<path fill="#DD1F2D" d="M434.376,27.702c-2,0-3.627-1.626-3.627-3.626s1.627-3.627,3.627-3.627s3.627,1.627,3.627,3.627
						S436.376,27.702,434.376,27.702L434.376,27.702z M434.376,20.923c-1.738,0-3.153,1.415-3.153,3.153
						c0,1.738,1.415,3.152,3.153,3.152c1.738,0,3.152-1.414,3.152-3.152C437.529,22.337,436.114,20.923,434.376,20.923z"/>
					<polygon fill="#DD1F2D" points="436.934,21.612 435.682,23.217 437.651,22.702 435.903,23.745 437.925,23.977 435.919,24.32 
						437.722,25.265 435.727,24.86 437.065,26.393 435.353,25.294 436.046,27.207 434.845,25.564 434.802,27.599 434.276,25.632 
						433.5,27.514 433.72,25.49 432.317,26.964 433.252,25.158 431.411,26.026 432.938,24.678 430.908,24.823 432.816,24.118 
						430.872,23.519 432.906,23.551 431.309,22.29 433.195,23.056 432.161,21.303 433.643,22.697 433.312,20.689 434.19,22.525 
						434.607,20.533 434.763,22.561 435.871,20.855 435.284,22.803 					"/>
					<path fill="#070707" d="M435.46,24.076c0,0.598-0.486,1.083-1.084,1.083c-0.598,0-1.083-0.485-1.083-1.083
						c0-0.599,0.486-1.084,1.083-1.084C434.974,22.992,435.46,23.477,435.46,24.076z"/>
				</g>
				<path fill="#DD1F2D" d="M434.121,73.037c-11.734,0-15.362-5.465-15.366-5.47l0.422,7.765c0,0,3.527,5.322,14.95,5.322
					c9.605,0,15.447-5.322,15.447-5.322l0.422-7.765C449.99,67.572,443.988,73.037,434.121,73.037z"/>
				<path fill="#070707" d="M434.375,80.554c0.286-1.01,0.459-2.31,0.459-3.728c0-1.419-0.173-2.719-0.459-3.729
					c-0.285,1.01-0.458,2.31-0.458,3.729C433.917,78.244,434.09,79.544,434.375,80.554L434.375,80.554z"/>
				<circle fill="#931926" cx="437.155" cy="77.064" r="1.073"/>
				<circle fill="#FFFFFF" cx="436.917" cy="76.825" r="1.074"/>
				<path fill="#FCB017" d="M438.176,87.519h-7.6c-1.206,0-2.187,0.981-2.187,2.187v5.407c0,1.206,0.98,2.187,2.187,2.187h7.6
					c1.206,0,2.187-0.981,2.187-2.187v-5.407C440.362,88.5,439.382,87.519,438.176,87.519z M437.584,90.554v3.712
					c0,0.222-0.181,0.401-0.401,0.401h-5.614c-0.222,0-0.401-0.18-0.401-0.401v-3.712c0-0.222,0.18-0.401,0.401-0.401h5.614
					C437.404,90.152,437.584,90.332,437.584,90.554z"/>
				<polygon fill="#C98C2B" points="434.356,45.121 434.376,45.101 434.396,45.121 438.598,42.161 430.155,42.161 				"/>
				<g>
					<path fill="#4E1D0F" d="M434.376,44.465c0,0-3.54-4.215-11.851-2.147c-8.312,2.068-12.566,12.368-12.566,12.368
						s4.533,3.38,11.612,2.465C428.649,56.237,434.416,48.681,434.376,44.465L434.376,44.465z"/>
					<path fill="#4E1D0F" d="M434.376,44.465c0,0,3.539-4.215,11.85-2.147c8.312,2.068,12.567,12.368,12.567,12.368
						s-4.533,3.38-11.612,2.465C440.103,56.237,434.337,48.681,434.376,44.465L434.376,44.465z"/>
				</g>
				<polygon fill="#DD1F2D" points="452.335,80.614 451.045,82.213 449.742,80.614 450.481,80.614 450.481,79.892 447.7,79.892 
					447.7,80.614 448.802,80.614 450.659,82.897 450.659,84.324 449.581,84.324 449.581,85.048 452.506,85.048 452.506,84.324 
					451.427,84.324 451.427,82.897 453.284,80.614 454.383,80.614 454.383,79.892 451.601,79.892 451.601,80.614 				"/>
			</g>
		</g>
	</g>
</g>
<g>
	<g>
		<path fill="#C9C9C9" d="M169.528,68.409l-3.215-8.595h-0.349l1.118,8.456v24.178h-8.316V43.182h6.778L179.59,67.78l3.005,8.456
			h0.419l-1.118-8.316V43.531h8.315v49.266h-6.778L169.528,68.409z"/>
		<path fill="#C9C9C9" d="M210.337,72.252l0.978,8.386h0.28l1.118-8.456l7.127-28.651h9.294L214.32,92.797h-6.708l-14.954-49.266
			h10.412L210.337,72.252z"/>
	</g>
	<g>
		<path fill="#4BBB85" d="M322.82,67.139c0.044-0.426,0.076-0.856,0.1-1.289c0.03-0.512-30.799-29.762-30.799-29.762h-0.737
			C291.384,36.088,322.631,69.049,322.82,67.139z"/>
		<path fill="#4BBB85" d="M257.046,56.993c-0.041,0.089-0.081,0.179-0.123,0.269c-0.044,0.094-0.089,0.187-0.134,0.281
			c-0.982,2.049,13.758,16.459,14.943,14.708c0.054-0.078,0.108-0.159,0.163-0.237c0.06-0.092,0.119-0.179,0.178-0.271
			C273.021,70.303,257.467,56.057,257.046,56.993z"/>
		<path fill="#4BBB85" d="M277.876,77.256c-0.042,0.092-0.339,0.593-0.609,0.858c-0.047,0.091,14.389,14.408,14.389,14.408h1.299
			C292.957,92.522,279.405,77.862,277.876,77.256z"/>
		<path fill="#4BBB85" d="M322.94,65.59c-0.675,14.965-13.056,26.932-28.183,26.932h-2.045l-15.107-14.882
			c1.243-1.752,2.397-3.568,3.427-5.461h13.725c4.34,0,7.873-3.531,7.873-7.873c0-4.341-3.533-7.873-7.873-7.873h-8.122
			c0.619-3.271,0.958-6.646,0.958-10.096c0-3.504-0.345-6.925-0.986-10.249h5.045l31.2,30.743
			C322.888,66.418,322.918,66.006,322.94,65.59z M233.341,0h-8.207v20.344h8.207c14.334,0,25.997,11.659,25.997,25.993
			c0,3.899-0.87,7.601-2.415,10.924l14.972,14.752c4.916-7.355,7.789-16.186,7.789-25.677C279.684,20.787,258.895,0,233.341,0z"/>
		<path fill="#21B270" d="M294.757,0h-33.233c8.117,4.956,14.838,11.983,19.418,20.344h13.815c4.34,0,7.873,3.53,7.873,7.873
			s-3.533,7.873-7.873,7.873h-3.104l31.199,30.742c0.074-0.834,0.12-1.672,0.12-2.524c0-6.858-2.461-13.15-6.547-18.046
			c4.086-4.894,6.547-11.187,6.547-18.044C322.972,12.659,310.316,0,294.757,0z"/>
		<path fill="#4BBB85" d="M292.712,92.522h-30.95c6.23-3.847,11.616-8.926,15.843-14.882L292.712,92.522z M271.895,72.014
			l-14.971-14.752c-4.136,8.889-13.149,15.071-23.583,15.071h-8.207v20.341h8.207C249.402,92.674,263.578,84.458,271.895,72.014z"/>
	</g>
</g>
</svg>
