<?xml version="1.0" encoding="utf-8"?>
<!-- Generator: Adobe Illustrator 16.0.0, SVG Export Plug-In . SVG Version: 6.00 Build 0)  -->
<!DOCTYPE svg PUBLIC "-//W3C//DTD SVG 1.1//EN" "http://www.w3.org/Graphics/SVG/1.1/DTD/svg11.dtd">
<svg version="1.1" id="Layer_1" xmlns="http://www.w3.org/2000/svg" xmlns:xlink="http://www.w3.org/1999/xlink" x="0px" y="0px"
	 width="48px" height="48px" viewBox="16.278 26 48 48" enable-background="new 16.278 26 48 48" xml:space="preserve">
<g>
	<path d="M57.739,38.584V34.89c0-0.556-0.451-1.007-1.006-1.007c-0.557,0-1.01,0.451-1.01,1.007v3.694h-4.029V34.89
		c0-0.556-0.451-1.007-1.008-1.007c-0.555,0-1.006,0.451-1.006,1.007v3.694h-2.016v2.015c0,2.875,2.012,5.277,4.701,5.889v7.542
		l2.01,14.825c-0.027,1.457-1.217,2.636-2.682,2.636c-1.479,0-2.684-1.204-2.686-2.685l0,0V50.003V50
		c0-2.222-1.807-4.029-4.029-4.029h-4.029V29.742c0-2.16-1.807-3.917-4.03-3.917H24.832c-2.222,0-4.029,1.757-4.029,3.917v44.435
		h20.147V48.658h4.029c0.74,0,1.344,0.603,1.344,1.343v0.002v18.801l0,0c0,2.964,2.41,5.373,5.371,5.373
		c2.963,0,5.373-2.409,5.373-5.373l-2.014-14.865v-7.451c2.689-0.611,4.699-3.013,4.699-5.889v-2.015H57.739L57.739,38.584z
		 M25.891,61.267l2.893-5.785h-3.616l5.063-8.68h3.616l-3.616,5.786h4.339L25.891,61.267z M38.263,40.039
		c0,0.679-0.604,1.231-1.343,1.231H24.832c-0.74,0-1.344-0.552-1.344-1.231V29.742c0-0.678,0.604-1.231,1.344-1.231H36.92
		c0.74,0,1.343,0.553,1.343,1.231V40.039z"/>
</g>
</svg>
