<?xml version="1.0" encoding="utf-8"?>
<!-- Generator: Adobe Illustrator 16.0.0, SVG Export Plug-In . SVG Version: 6.00 Build 0)  -->
<!DOCTYPE svg PUBLIC "-//W3C//DTD SVG 1.1//EN" "http://www.w3.org/Graphics/SVG/1.1/DTD/svg11.dtd">
<svg version="1.1" id="Layer_1" xmlns="http://www.w3.org/2000/svg" xmlns:xlink="http://www.w3.org/1999/xlink" x="0px" y="0px"
	 width="48px" height="48px" viewBox="17.188 -3.399 48 48" enable-background="new 17.188 -3.399 48 48" xml:space="preserve">
<g>
	<g>
		<path d="M57.191,23.289c-2.367,0-4.287,1.92-4.287,4.287c0,2.369,1.92,4.291,4.287,4.291c2.371,0,4.289-1.922,4.289-4.291
			C61.48,25.208,59.562,23.289,57.191,23.289z M57.055,29.234c-0.951,0-1.725-0.773-1.725-1.725c0-0.955,0.773-1.727,1.725-1.727
			c0.955,0,1.727,0.771,1.727,1.727C58.781,28.46,58.01,29.234,57.055,29.234z"/>
	</g>
	<g>
		<path d="M28.998,23.013c-2.369,0-4.289,1.922-4.289,4.291s1.92,4.289,4.289,4.289c2.369,0,4.289-1.92,4.289-4.289
			S31.367,23.013,28.998,23.013z M28.861,28.96c-0.953,0-1.726-0.771-1.726-1.725s0.773-1.727,1.726-1.727s1.726,0.773,1.726,1.727
			S29.814,28.96,28.861,28.96z"/>
	</g>
	<path fill="#030202" d="M62.617,24.046v-6.698l-7.041-7.587c0,0-29.597-0.957-32.058,0c-2.46,0.957-3.554,7.52-3.554,7.52v6.766
		l-1.299,0.273v0.547v1.141l0.866,0.365l4.534,0.066l0.082-0.012c0.434-2.312,2.454-4.062,4.884-4.062
		c2.599,0,4.729,2.002,4.951,4.553h18.175c0.516-2.344,2.422-4.238,4.92-4.238c2.5,0,4.52,1.895,5.037,4.238
		c0.014,0,0.021,0,0.021,0h1.572v-2.871H62.617z M53.389,15.908l-0.686,0.484L49.197,16.3l-0.502-0.41v-4.192l0.502-0.486
		l3.508,0.001l0.684,0.479V15.908z M59.402,16.392h-0.41h-3.484l-0.82-0.752v-4.101l0.684-0.342l4.031,4.101V16.392z"/>
</g>
</svg>
