<?xml version="1.0" encoding="utf-8"?>
<!-- Generator: Adobe Illustrator 16.0.0, SVG Export Plug-In . SVG Version: 6.00 Build 0)  -->
<!DOCTYPE svg PUBLIC "-//W3C//DTD SVG 1.1//EN" "http://www.w3.org/Graphics/SVG/1.1/DTD/svg11.dtd">
<svg version="1.1" id="Layer_1" xmlns="http://www.w3.org/2000/svg" xmlns:xlink="http://www.w3.org/1999/xlink" x="0px" y="0px"
	 width="82.375px" height="41.202px" viewBox="0 0 82.375 41.202" enable-background="new 0 0 82.375 41.202" xml:space="preserve">
<g>
	<g>
		<path d="M70.457,25.514c-4.332,0-7.844,3.512-7.844,7.844s3.512,7.844,7.844,7.844s7.844-3.512,7.844-7.844
			S74.789,25.514,70.457,25.514z M70.207,36.389c-1.743,0-3.156-1.414-3.156-3.156c0-1.744,1.413-3.156,3.156-3.156
			s3.156,1.412,3.156,3.156C73.363,34.975,71.95,36.389,70.207,36.389z"/>
	</g>
	<g>
		<path d="M18.895,25.014c-4.332,0-7.844,3.512-7.844,7.844s3.512,7.844,7.844,7.844s7.844-3.512,7.844-7.844
			S23.227,25.014,18.895,25.014z M18.645,35.889c-1.743,0-3.156-1.414-3.156-3.156c0-1.744,1.413-3.156,3.156-3.156
			s3.156,1.412,3.156,3.156C21.801,34.475,20.388,35.889,18.645,35.889z"/>
	</g>
	<path fill="#030202" d="M80.375,26.903v-12.25L67.5,0.778c0,0-54.125-1.75-58.625,0s-6.5,13.75-6.5,13.75v12.375L0,27.403v1v2.084
		l1.584,0.666l8.291,0.125l0.151-0.023c0.794-4.229,4.487-7.428,8.931-7.428c4.754,0,8.65,3.661,9.054,8.326H61.25
		c0.943-4.289,4.428-7.75,9-7.75c4.571,0,8.264,3.461,9.208,7.748c0.026,0.002,0.042,0.002,0.042,0.002h2.875v-5.25H80.375z
		 M63.5,12.018l-1.25,0.885l-6.416-0.167l-0.917-0.75V4.319l0.917-0.888l6.417,0.002L63.5,4.308V12.018z M74.5,12.903h-0.75h-6.375
		l-1.5-1.375v-7.5l1.25-0.625l7.375,7.5V12.903z"/>
</g>
</svg>
