<?xml version="1.0" encoding="utf-8"?>
<!-- Generator: Adobe Illustrator 16.0.0, SVG Export Plug-In . SVG Version: 6.00 Build 0)  -->
<!DOCTYPE svg PUBLIC "-//W3C//DTD SVG 1.1//EN" "http://www.w3.org/Graphics/SVG/1.1/DTD/svg11.dtd">
<svg version="1.1" id="Layer_1" xmlns="http://www.w3.org/2000/svg" xmlns:xlink="http://www.w3.org/1999/xlink" x="0px" y="0px"
	 width="85.875px" height="34.281px" viewBox="0 0 85.875 34.281" enable-background="new 0 0 85.875 34.281" xml:space="preserve">
<g>
	<path d="M71.114,17.219c-4.712,0-8.531,3.819-8.531,8.531s3.819,8.531,8.531,8.531s8.531-3.819,8.531-8.531
		S75.826,17.219,71.114,17.219z M72.47,29.342c-0.464,0.201-0.974,0.314-1.512,0.314c-2.105,0-3.812-1.707-3.812-3.812
		c0-1.672,1.084-3.078,2.582-3.592c0.388-0.133,0.798-0.221,1.23-0.221c2.105,0,3.812,1.707,3.812,3.812
		C74.771,27.412,73.822,28.756,72.47,29.342z"/>
	<path d="M21.656,17.219c-4.712,0-8.531,3.819-8.531,8.531s3.819,8.531,8.531,8.531s8.531-3.819,8.531-8.531
		S26.368,17.219,21.656,17.219z M21.5,29.656c-2.105,0-3.812-1.707-3.812-3.812s1.707-3.812,3.812-3.812s3.812,1.707,3.812,3.812
		S23.605,29.656,21.5,29.656z"/>
	<path d="M84.75,19h-1.625l-0.25-5.125c0,0-0.5-3.062-3.812-3.812c0,0-16.938-0.312-17.562-1.125L53.125,0H9.812
		c0,0-3.75,2.062-3.625,7.438l-0.125,0.75L5,8.25l-0.125-2.5l-0.75-0.688H0.75L0,6.188v11.938L1.062,19h1.875v4.062
		c0,0-0.188,1.969,1.969,1.969c1.89,0,6.1,0,7.053,0c0.536-4.995,4.53-8.885,9.667-8.885s9.13,3.89,9.666,8.885h29.74
		c0.324-5.207,4.638-9.333,9.927-9.333c5.254,0,9.547,4.072,9.921,9.231c0.062,0.03,0.123,0.063,0.183,0.103h3.812l1-0.969v-3.938
		L84.75,19z M35.938,9l-2.062,2h-25H7.999L8,9.125C7.938,5,12.062,2,12.062,2H34l1.938,2.125V9z M51,11H40.812l-2.688-2V4.125
		L40.062,2H51V11z M57.875,10l-0.812,1h-5.188V2l6,6.188V10z"/>
</g>
</svg>
