<?xml version="1.0" encoding="utf-8"?>
<!-- Generator: Adobe Illustrator 16.0.0, SVG Export Plug-In . SVG Version: 6.00 Build 0)  -->
<!DOCTYPE svg PUBLIC "-//W3C//DTD SVG 1.1//EN" "http://www.w3.org/Graphics/SVG/1.1/DTD/svg11.dtd">
<svg version="1.1" id="Layer_1" xmlns="http://www.w3.org/2000/svg" xmlns:xlink="http://www.w3.org/1999/xlink" x="0px" y="0px"
	 width="48px" height="48px" viewBox="17.083 16.162 48 48" enable-background="new 17.083 16.162 48 48" xml:space="preserve">
<g>
	<path d="M55.13,43.876c-5.662,6.798-11.54,2.938-13.458,1.355c1.479-1.616,2.158-2.494,4.726-4.609
		c2.654,1.084,7.403-0.975,7.403-0.975c-3.195,0.837-5.638,0.363-6.505,0.133c0.187-0.146,3.337-2.427,4.291-3.746
		c2.639,0.082,4.817-2.185,4.817-2.185c-0.071-0.061-1.405,0.962-3.929,1.085c2.613-3.838,2.495-7.37,2.495-7.37
		s-0.964,3.224-3.418,6.757c-0.504-2.508,0.137-4.216,0.065-4.271c0,0-1.709,2.817-0.922,5.407
		c-1.342,1.534-3.457,2.858-4.239,3.452c-0.06-0.16-0.876-2.837-0.083-6.791c0,0-2.151,4.971-0.804,7.549
		c-1.648,1.268-2.09,1.579-4.844,4.657c-6.234-4.667-0.881-13.015,3.787-14.959c4.803-2.002,6.803-1.599,11.206-8.803
		C60.541,27.703,59.75,38.333,55.13,43.876z"/>
	<path d="M28.523,43.151c2.836,1.297,4.802,3.058,6.153,4.742c0.017-0.049,0.037-0.089,0.053-0.146
		c2.567-9.24-11.546-7.954-11.546-7.954s1.95,3.001,3.037,6.272c1.257,3.792,6.394,6.944,8.24,2.44
		C33.127,46.711,31.22,44.75,28.523,43.151z"/>
	<path d="M41.672,45.232c-0.016-0.021-0.975-0.878-0.958-0.898c-2.419,2.664-3.363,4.939-3.592,7.841
		c-0.366-0.997-1.099-2.594-2.445-4.281c-0.063,0.221-0.138,0.421-0.216,0.612c1.434,1.932,1.989,4.562,2.315,5.426
		c0,2.409,0.264,3.613,0.477,5.624c0,0,1.296,0.766,1.657-0.663C38.177,57.682,37.458,49.355,41.672,45.232z"/>
</g>
</svg>
