<svg xmlns="http://www.w3.org/2000/svg" xmlns:xlink="http://www.w3.org/1999/xlink" version="1.1" id="pause_outline_circle_outline" x="0px" y="0px" width="100px" height="100px" viewBox="0 0 100 100" enable-background="new 0 0 100 100" xml:space="preserve">
<path d="M50,100C22.43,100,0,77.57,0,50S22.43,0,50,0s50,22.43,50,50S77.57,100,50,100z M50,4C24.636,4,4,24.636,4,50  s20.636,46,46,46s46-20.636,46-46S75.364,4,50,4z"/>
<path d="M45,73H29V27h16V73z M33,69h8V31h-8V69z"/>
<path d="M71,73H55V27h16V73z M59,69h8V31h-8V69z"/>
</svg>