<svg xmlns="http://www.w3.org/2000/svg" xmlns:xlink="http://www.w3.org/1999/xlink" version="1.1" x="0px" y="0px" width="100px" height="100px" viewBox="0 0 100 100" enable-background="new 0 0 100 100" xml:space="preserve">
<g id="Captions">
</g>
<g id="Your_Icon">
	<path d="M49.225,15.748l0.263-0.239c1.289-1.169,2.026-2.836,2.026-4.574s-0.737-3.406-2.026-4.574l-0.263-0.241L48.961,6.36   c-1.288,1.168-2.027,2.836-2.027,4.574s0.739,3.405,2.027,4.574L49.225,15.748z"/>
	<path d="M33.92,22.571l0.354,0.041l0.076-0.348c0.367-1.699,0-3.485-1.01-4.9c-1.011-1.414-2.579-2.341-4.307-2.545l-0.354-0.042   l-0.075,0.348c-0.369,1.699,0,3.485,1.008,4.9C30.623,21.44,32.193,22.369,33.92,22.571z"/>
	<path d="M16.123,30.009c0.957,0.57,2.048,0.872,3.156,0.872c0.614,0,1.222-0.092,1.811-0.271l0.34-0.105l-0.069-0.347   c-0.347-1.706-1.401-3.193-2.895-4.083c-1.486-0.885-3.315-1.104-4.967-0.601l-0.341,0.104l0.071,0.349   C13.575,27.632,14.631,29.119,16.123,30.009z"/>
	<path d="M11.226,40.664c0.595,0.133,1.202,0.18,1.806,0.135l0,0c1.112-0.082,2.184-0.467,3.101-1.11l0.291-0.206l-0.176-0.31   c-0.859-1.512-2.324-2.597-4.021-2.978c-1.693-0.38-3.493-0.019-4.907,0.978l-0.29,0.204l0.175,0.31   C8.063,39.198,9.529,40.283,11.226,40.664z"/>
	<path d="M17.939,51.463l-0.272-0.229c-1.334-1.118-3.08-1.623-4.807-1.389c-1.723,0.233-3.275,1.19-4.26,2.625l-0.201,0.294   l0.273,0.228c1.177,0.988,2.67,1.502,4.201,1.442c0.201-0.008,0.404-0.025,0.604-0.053c1.722-0.234,3.274-1.191,4.26-2.625   L17.939,51.463z"/>
	<path d="M30.294,59.989c-1.488,0.897-2.534,2.391-2.872,4.097l-0.069,0.351l0.342,0.102c0.953,0.285,1.971,0.337,2.943,0.149l0,0   c0.713-0.137,1.394-0.397,2.021-0.776c1.488-0.896,2.536-2.391,2.872-4.097l0.07-0.351l-0.342-0.102   C33.605,58.868,31.777,59.097,30.294,59.989z"/>
	<path d="M48.416,35.171l-0.285-0.138l-0.163,0.271c-1.105,1.826-1.39,4.047-0.78,6.092c0.609,2.044,2.063,3.746,3.987,4.671   l0.285,0.137l0.163-0.271c1.104-1.825,1.39-4.046,0.779-6.09C51.794,37.797,50.341,36.095,48.416,35.171z"/>
	<path d="M50.962,20.5l-0.163-0.264l-0.277,0.137c-1.878,0.928-3.286,2.611-3.863,4.624c-0.576,2.012-0.274,4.187,0.829,5.966   l0.163,0.266l0.276-0.139c1.879-0.926,3.286-2.61,3.863-4.623C52.367,24.455,52.064,22.281,50.962,20.5z"/>
	<path d="M40.166,50.981c0.978-0.078,1.934-0.292,2.84-0.639l0.347-0.133l-0.109-0.313c-0.741-2.111-2.479-3.843-4.77-4.747   c-2.277-0.902-4.963-0.903-7.28-0.018l-0.346,0.132l0.109,0.312c0.741,2.113,2.479,3.845,4.769,4.749   C37.11,50.874,38.646,51.101,40.166,50.981L40.166,50.981z"/>
	<path d="M27.188,56.739c0.121-0.007,0.243-0.015,0.366-0.028c2.142-0.212,4.106-1.326,5.39-3.056l0.213-0.285l-0.265-0.239   c-1.609-1.455-3.701-2.152-5.885-1.938c-2.142,0.213-4.106,1.326-5.39,3.056l-0.212,0.285l0.263,0.239   C23.188,56.146,25.148,56.843,27.188,56.739L27.188,56.739z"/>
	<path d="M30.115,39.885l0.321-0.151l-0.12-0.336c-0.728-2.027-2.284-3.663-4.272-4.487c-1.527-0.634-3.181-0.758-4.78-0.357   c-0.484,0.121-0.961,0.291-1.413,0.506l-0.322,0.15l0.119,0.335c0.728,2.026,2.284,3.663,4.271,4.489   c1.529,0.634,3.182,0.756,4.781,0.357C29.186,40.268,29.661,40.098,30.115,39.885z"/>
	<path d="M26.4,46.503l0.253-0.237l-0.212-0.274c-1.283-1.665-3.218-2.716-5.31-2.885c-1.606-0.131-3.18,0.25-4.543,1.1   c-0.414,0.258-0.806,0.559-1.162,0.892l-0.252,0.238l0.211,0.274c1.281,1.663,3.217,2.717,5.311,2.887   c1.606,0.131,3.177-0.251,4.543-1.101C25.652,47.138,26.044,46.837,26.4,46.503z"/>
	<path d="M26.116,29.086c1.389,1.233,3.175,1.921,5.03,1.933c0.001,0,0.001,0,0.001,0c0.287,0.003,0.581-0.012,0.867-0.043   l0.354-0.038l-0.004-0.356c-0.021-2.154-0.956-4.209-2.564-5.64c-1.389-1.235-3.176-1.923-5.032-1.935   c-0.288-0.002-0.58,0.013-0.866,0.043l-0.354,0.038l0.003,0.355C23.571,25.596,24.506,27.652,26.116,29.086z"/>
	<path d="M42.392,24.142l0.301,0.186l0.218-0.273c1.32-1.649,1.863-3.771,1.49-5.824c-0.373-2.055-1.632-3.869-3.452-4.983   l-0.301-0.184l-0.218,0.271c-1.319,1.649-1.863,3.771-1.491,5.825C39.312,21.214,40.57,23.029,42.392,24.142z"/>
	<path d="M33.893,35.43l-0.317,0.037l0.008,0.268c0.062,1.801,1.034,3.498,2.671,4.656c1.58,1.115,3.591,1.635,5.664,1.462l0,0   c0.096-0.008,0.191-0.018,0.286-0.026l0.317-0.038l-0.01-0.267c-0.059-1.802-1.032-3.499-2.669-4.655   C38.189,35.698,36.048,35.188,33.893,35.43z"/>
	<path d="M36.033,25.565l-0.298-0.03l-0.046,0.244c-0.316,1.659,0.225,3.41,1.483,4.804c1.214,1.344,2.943,2.231,4.876,2.5l0,0   c0.087,0.013,0.176,0.023,0.266,0.032l0.297,0.033l0.047-0.246c0.315-1.658-0.226-3.409-1.484-4.804   C39.903,26.694,38.052,25.788,36.033,25.565z"/>
	<path d="M66.107,22.571l-0.353,0.041l-0.075-0.348c-0.37-1.699,0-3.485,1.009-4.9c1.011-1.414,2.579-2.341,4.306-2.545l0.354-0.042   l0.075,0.348c0.369,1.699,0.001,3.485-1.009,4.9C69.403,21.44,67.835,22.369,66.107,22.571z"/>
	<path d="M83.905,30.009c-0.956,0.57-2.048,0.872-3.157,0.872c-0.613,0-1.222-0.092-1.811-0.271l-0.339-0.105l0.07-0.347   c0.345-1.706,1.4-3.193,2.895-4.083c1.484-0.885,3.313-1.104,4.966-0.601l0.341,0.104l-0.071,0.349   C86.454,27.632,85.398,29.119,83.905,30.009z"/>
	<path d="M88.803,40.664c-0.595,0.133-1.203,0.18-1.805,0.135l0,0c-1.113-0.082-2.185-0.467-3.103-1.11l-0.291-0.206l0.177-0.31   c0.86-1.512,2.325-2.597,4.021-2.978c1.692-0.38,3.492-0.019,4.906,0.978L93,37.377l-0.177,0.31   C91.964,39.198,90.5,40.283,88.803,40.664z"/>
	<path d="M82.09,51.463l0.272-0.229c1.333-1.118,3.08-1.623,4.807-1.389c1.722,0.233,3.273,1.19,4.259,2.625l0.201,0.294   l-0.272,0.228c-1.179,0.988-2.67,1.502-4.202,1.442c-0.2-0.008-0.404-0.025-0.604-0.053c-1.723-0.234-3.275-1.191-4.261-2.625   L82.09,51.463z"/>
	<path d="M69.735,59.989c1.487,0.897,2.534,2.391,2.87,4.097l0.069,0.351l-0.341,0.102c-0.954,0.285-1.972,0.337-2.944,0.149l0,0   c-0.714-0.137-1.392-0.397-2.019-0.776c-1.49-0.896-2.536-2.391-2.874-4.097l-0.069-0.351l0.342-0.102   C66.423,58.868,68.252,59.097,69.735,59.989z"/>
	<path d="M59.861,50.981c-0.977-0.078-1.932-0.292-2.839-0.639l-0.347-0.133l0.11-0.313c0.741-2.111,2.479-3.843,4.769-4.747   c2.277-0.902,4.964-0.903,7.279-0.018l0.346,0.132l-0.108,0.312c-0.741,2.113-2.479,3.845-4.769,4.749   C62.919,50.874,61.382,51.101,59.861,50.981L59.861,50.981z"/>
	<path d="M72.84,56.739c-0.121-0.007-0.244-0.015-0.366-0.028c-2.142-0.212-4.107-1.326-5.39-3.056l-0.213-0.285l0.264-0.239   c1.611-1.455,3.703-2.152,5.887-1.938c2.142,0.213,4.105,1.326,5.39,3.056l0.212,0.285l-0.264,0.239   C76.84,56.146,74.881,56.843,72.84,56.739C72.841,56.739,72.841,56.739,72.84,56.739z"/>
	<path d="M69.914,39.885l-0.321-0.151l0.119-0.336c0.729-2.027,2.284-3.663,4.271-4.487c1.528-0.634,3.182-0.758,4.78-0.357   c0.486,0.121,0.961,0.291,1.415,0.506l0.321,0.15l-0.119,0.335c-0.727,2.026-2.283,3.663-4.272,4.489   c-1.527,0.634-3.181,0.756-4.779,0.357C70.843,40.268,70.367,40.098,69.914,39.885z"/>
	<path d="M73.627,46.503l-0.251-0.237l0.211-0.274c1.282-1.665,3.218-2.716,5.311-2.885c1.606-0.131,3.178,0.25,4.543,1.1   c0.413,0.258,0.803,0.559,1.161,0.892l0.253,0.238l-0.212,0.274c-1.281,1.663-3.217,2.717-5.31,2.887   c-1.607,0.131-3.178-0.251-4.544-1.101C74.376,47.138,73.984,46.837,73.627,46.503z"/>
	<path d="M73.913,29.086c-1.389,1.233-3.176,1.921-5.03,1.933l0,0c-0.291,0.003-0.582-0.012-0.869-0.043l-0.355-0.038l0.004-0.356   c0.023-2.154,0.957-4.209,2.565-5.64c1.389-1.235,3.176-1.923,5.032-1.935c0.289-0.002,0.58,0.013,0.867,0.043l0.354,0.038   l-0.004,0.355C76.456,25.596,75.521,27.652,73.913,29.086z"/>
	<path d="M57.637,24.142l-0.301,0.186l-0.218-0.273c-1.32-1.649-1.863-3.771-1.49-5.824c0.373-2.055,1.632-3.869,3.451-4.983   l0.302-0.184l0.218,0.271c1.319,1.649,1.862,3.771,1.49,5.825C60.717,21.214,59.457,23.029,57.637,24.142z"/>
	<path d="M66.136,35.43l0.317,0.037l-0.008,0.268c-0.062,1.801-1.034,3.498-2.672,4.656c-1.579,1.115-3.59,1.635-5.662,1.462l0,0   c-0.098-0.008-0.192-0.018-0.288-0.026l-0.316-0.038l0.009-0.267c0.061-1.802,1.034-3.499,2.67-4.655   C61.838,35.698,63.98,35.188,66.136,35.43z"/>
	<path d="M62.552,26.532l0.326,0.006l0.019,0.271c0.125,1.84-0.691,3.666-2.239,5.009c-1.493,1.297-3.484,2.032-5.613,2.068l0,0   c-0.096,0.001-0.195,0.001-0.293,0l-0.326-0.004l-0.02-0.271c-0.122-1.839,0.695-3.666,2.242-5.01   C58.209,27.245,60.334,26.509,62.552,26.532z"/>
	<path d="M61.489,54.278c-0.161,0.029-0.344,0.088-0.533,0.162c-1.658,0.536-6.673,2.52-10.941,7.353   c-4.27-4.833-9.285-6.816-10.941-7.353c-0.191-0.074-0.373-0.133-0.533-0.162c-0.717-0.265-1.66,1.235-0.761,1.854   c3.097,2.041,6.109,4.54,7.049,9.396c0.574,2.971,0.478,6.974,0.399,10.786c-0.135,6.539-1.294,12.909-6.69,15.395   c1.502,0.393,5.86,0.755,11.478-3.057c5.615,3.812,9.975,3.449,11.478,3.057c-5.397-2.485-6.557-8.855-6.692-15.395   c-0.076-3.812-0.175-7.815,0.4-10.786c0.939-4.855,3.951-7.354,7.05-9.396C63.149,55.514,62.206,54.014,61.489,54.278z"/>
	<circle cx="50.015" cy="53.274" r="3.122"/>
</g>
</svg>