<?xml version="1.0" encoding="utf-8"?>
<!-- Generator: Adobe Illustrator 15.0.2, SVG Export Plug-In . SVG Version: 6.00 Build 0)  -->
<!DOCTYPE svg PUBLIC "-//W3C//DTD SVG 1.1//EN" "http://www.w3.org/Graphics/SVG/1.1/DTD/svg11.dtd">
<svg version="1.1" id="Layer_1" xmlns="http://www.w3.org/2000/svg" xmlns:xlink="http://www.w3.org/1999/xlink" x="0px" y="0px"
	 width="100px" height="100px" viewBox="0 0 100 100" enable-background="new 0 0 100 100" xml:space="preserve">
<path d="M77.656,56.25c2.396,0,4.531-0.625,6.406-1.875c1.822-1.303,3.385-2.865,4.688-4.688c1.25-1.875,1.875-4.037,1.875-6.484
	s-1.275-5-3.828-7.656l-6.328-6.484c-6.719-6.927-13.49-13.646-20.312-20.156L50-0.781L39.844,8.906
	c-6.823,6.51-13.594,13.229-20.312,20.156l-6.719,6.953c-2.292,2.344-3.438,4.609-3.438,6.797v0.781
	c0,1.667,0.208,3.021,0.625,4.062s1.042,2.083,1.875,3.125c0.885,1.094,1.875,2.084,2.969,2.969
	c1.042,0.834,2.083,1.459,3.125,1.875s2.344,0.625,3.906,0.625s2.865-0.209,3.906-0.625c1.094-0.469,2.24-1.197,3.438-2.188
	c1.25-0.99,2.682-2.344,4.297-4.062l3.984-4.141v41.562c0,2.553,0.417,4.557,1.25,6.016c0.885,1.459,1.719,2.604,2.5,3.438
	c0.833,0.781,1.979,1.615,3.438,2.5C46.146,99.584,47.917,100,50,100c2.084,0,3.854-0.416,5.312-1.25
	c1.459-0.885,2.604-1.719,3.438-2.5c0.781-0.834,1.615-1.979,2.5-3.438c0.834-1.459,1.25-3.463,1.25-6.016V45.859l7.422,6.719
	C72.631,55.025,75.209,56.25,77.656,56.25"/>
</svg>
