<?xml version="1.0" encoding="utf-8"?>
<!-- Generator: Adobe Illustrator 16.0.0, SVG Export Plug-In . SVG Version: 6.00 Build 0)  -->
<!DOCTYPE svg PUBLIC "-//W3C//DTD SVG 1.1//EN" "http://www.w3.org/Graphics/SVG/1.1/DTD/svg11.dtd">
<svg version="1.1" id="Layer_1" xmlns="http://www.w3.org/2000/svg" xmlns:xlink="http://www.w3.org/1999/xlink" x="0px" y="0px"
	 width="213.25px" height="175.5px" viewBox="0 0 213.25 175.5" enable-background="new 0 0 213.25 175.5" xml:space="preserve">
<polygon fill="#91DD4E" points="108.616,134.236 72.772,120.795 13.779,74.495 36.182,40.519 87.715,26.36 170.969,67.132 
	167.608,91.297 132.885,131.405 "/>
<path fill="#2A5401" d="M32.267,104.419c-14.908,0-26.992,12.081-26.992,26.983c0,14.907,12.086,26.988,26.992,26.988
	c14.902,0,26.981-12.081,26.981-26.988C59.248,116.5,47.168,104.419,32.267,104.419z M32.267,151.792
	c-11.261,0-20.393-9.122-20.393-20.39c0-11.258,9.132-20.39,20.393-20.39c11.259,0,20.384,9.13,20.384,20.39
	C52.65,142.67,43.526,151.792,32.267,151.792z"/>
<path fill="#2A5401" d="M180.197,104.419c-14.907,0-26.986,12.081-26.986,26.983c0,14.907,12.079,26.988,26.986,26.988
	c14.9,0,26.98-12.081,26.98-26.988C207.178,116.5,195.098,104.419,180.197,104.419z M180.197,151.792
	c-11.261,0-20.393-9.122-20.393-20.39c0-11.258,9.13-20.39,20.393-20.39c11.26,0,20.387,9.13,20.387,20.39
	C200.584,142.67,191.457,151.792,180.197,151.792z"/>
<path fill="#71C618" d="M180.197,98.421c13.5,0,25.095,8.129,30.197,19.746c0.886-2.984,1.38-6.141,1.38-9.421
	c0-17.455-13.575-31.709-30.737-32.866c0.485-0.999,0.759-2.041,0.759-3.118c0-4.77-5.014-8.921-12.431-11.12
	c-19.23-21.489-60.183-38.723-84.056-38.723c-31.989,0-47.981,4.053-58.107,11.088c-9.341,6.489-10.915,21.861-10.098,34.967
	c7.559-1.744,17.306-1.875,25.403-1.845c1.125-17.341,10.921-33.124,36.404-33.124c48.511,0,65.914,28.909,84.104,38.221
	c-19.46,5.412-17.734,49.044-56.649,49.044c-33.627,0-62.647-30.588-63.908-49.387C20.145,73.17,10.858,80.842,7.739,84.344
	c-0.675,2.986-1.06,6.27-1.06,9.74c0,5.194,0.849,10.007,2.288,13.972c5.97-5.953,14.203-9.64,23.302-9.64
	c18.213,0,32.979,14.771,32.979,32.982c0,3.439-0.527,6.749-1.503,9.86h84.973c-0.979-3.113-1.505-6.421-1.505-9.86
	C147.213,113.188,161.979,98.421,180.197,98.421z"/>
<path fill="#408900" d="M50.484,67.132c-1.308-0.009-2.372,1.066-2.372,2.379c0,1.293,1.037,2.337,2.325,2.364v0.011
	c49.492,0,47.147,14.153,106.917,0.342C88.565,81.361,110.804,67.623,50.484,67.132z"/>
</svg>
